<svg xmlns="http://www.w3.org/2000/svg" xmlns:xlink="http://www.w3.org/1999/xlink" viewBox="0 0 265.6 51.9"><defs><style>.a{fill:none;}.b{clip-path:url(#a);}.c{fill:#fdb718;}.d{fill:#fff;}.e{fill:#262b31;}</style><clipPath id="a"><path class="a" d="M66.3,1H23.2L1.2,42.9a5.45,5.45,0,0,0,3,7.8,4.14,4.14,0,0,0,1.6.2H48.7L70.6,9A5.51,5.51,0,0,0,66.3.9C66.4,1,66.4,1,66.3,1Z"/></clipPath></defs><title>etechs.com.ua</title><g class="b"><rect class="c" width="72.1" height="51.9"/></g><g class="b"><polygon class="d" points="59.9 15.4 59.9 9.5 23.4 9.5 23.4 42.5 59.9 42.5 59.9 36.6 29.3 36.6 29.3 28.9 54 28.9 54 23 29.3 23 29.3 15.4 59.9 15.4"/></g><polygon class="e" points="59.9 9.5 59.9 15.4 75.4 15.4 75.4 42.5 81.3 42.5 81.3 15.4 96.3 15.4 96.3 9.5 59.9 9.5"/><polygon class="e" points="138.6 15.4 138.6 9.5 102.2 9.5 102.2 42.5 138.6 42.5 138.6 36.6 108.1 36.6 108.1 28.9 132.8 28.9 132.8 23 108.1 23 108.1 15.4 138.6 15.4"/><path class="e" d="M150.4,15.4H181a5.91,5.91,0,0,0-5.9-5.9H150.4a5.91,5.91,0,0,0-5.9,5.9V36.6a5.91,5.91,0,0,0,5.9,5.9h24.7a5.91,5.91,0,0,0,5.9-5.9H150.4V15.4Z"/><polygon class="e" points="217.4 9.5 217.4 23 192.7 23 192.7 9.5 186.8 9.5 186.8 42.5 192.7 42.5 192.7 28.9 217.4 28.9 217.4 42.5 223.3 42.5 223.3 9.5 217.4 9.5"/><path class="e" d="M259.7,23.3H235V15.4h30.6a5.91,5.91,0,0,0-5.9-5.9H235a5.91,5.91,0,0,0-5.9,5.9l-.1,7.9a5.91,5.91,0,0,0,5.9,5.9h24.7v7.4H229a5.91,5.91,0,0,0,5.9,5.9h24.7a5.91,5.91,0,0,0,5.9-5.9V29.2A5.76,5.76,0,0,0,259.7,23.3Z"/></svg>